<?xml version="1.0" encoding="UTF-8"?>
<svg id="Layer_1" xmlns="http://www.w3.org/2000/svg" version="1.1" viewBox="0 0 1366 258.9">
  <!-- Generator: Adobe Illustrator 30.0.0, SVG Export Plug-In . SVG Version: 2.1.1 Build 123)  -->
  <defs>
    <style>
      .st0 {
        fill: #e2e2e2;
        stroke: #000;
        stroke-linecap: round;
        stroke-linejoin: bevel;
        stroke-width: 17.5px;
      }
    </style>
  </defs>
  <g>
    <path d="M154.9,201.7c-12.3,0-22.6-1.8-30.8-5.5-8.2-3.7-14.5-8.7-18.8-15.2s-6.8-13.9-7.4-22.4l26.1-1.2c1.3,7,4.2,12.6,8.9,16.8,4.6,4.2,12,6.2,22,6.2s14.1-1.3,18.3-3.8c4.2-2.6,6.3-6.6,6.3-12.2s-.7-5.8-2.2-7.9c-1.4-2.1-4.2-3.9-8.4-5.4-4.2-1.5-10.3-3-18.4-4.4-12.5-2.4-22.2-5.2-29.1-8.5-6.9-3.3-11.9-7.3-14.7-12.2-2.9-4.9-4.3-10.8-4.3-17.9,0-11.7,4.4-21.2,13.2-28.5,8.8-7.3,21.5-11,38.1-11s21.2,2,28.8,5.9c7.5,3.9,13.2,9.1,17,15.5,3.8,6.4,6.1,13.3,6.9,20.6l-26.1,1.4c-.2-4-1.2-7.7-3.2-11-2-3.4-4.9-6-8.7-8-3.8-2-8.9-3-15.1-3s-14.5,1.6-18.4,4.8c-4,3.2-6,7.3-6,12.5s.8,6.9,2.4,9.3c1.6,2.4,4.4,4.4,8.4,5.9,4,1.5,9.3,2.8,16.1,4,12.9,2.1,23.1,4.8,30.4,8,7.3,3.3,12.5,7.3,15.5,12.2,3,4.9,4.4,10.7,4.4,17.6,0,12-4.7,21.2-14,27.8-9.3,6.6-21.7,9.8-37,9.8Z"/>
    <path d="M284.5,201.7c-12.1,0-22.8-2.7-31.9-8.1s-16.1-13.2-21.1-23.2c-5-10.1-7.4-21.8-7.4-35.2s2.5-25.1,7.4-35.1c4.9-10,12-17.7,21.1-23.2,9.1-5.5,19.7-8.3,31.9-8.3s19.6,1.8,27.7,5.4c8.1,3.6,14.6,8.8,19.6,15.7,5,6.9,8.3,15.3,9.7,25.2l-26.6,1.4c-1.3-8.3-4.6-14.7-10.1-19-5.4-4.4-12.2-6.6-20.4-6.6s-19,4-25,11.9c-6,7.9-9,18.8-9,32.7s3,24.8,9,32.7,14.3,11.9,25,11.9,14.9-2.3,20.4-6.8c5.4-4.6,8.8-11.5,10.1-20.7l26.6,1.4c-1.4,9.7-4.7,18.2-9.7,25.4-5,7.2-11.6,12.8-19.6,16.8-8.1,4-17.3,6-27.7,6Z"/>
    <path d="M364.5,198.8v-127.5h23.2l1,34-3.1-1.7c1.4-8.3,4.2-15,8.1-20.1,4-5.1,8.9-8.9,14.6-11.4,5.8-2.5,12-3.7,18.7-3.7,9.6,0,17.5,2.1,23.8,6.3,6.3,4.2,11.1,10,14.4,17.3,3.3,7.3,4.9,15.5,4.9,24.8v81.9h-25.4v-74.3c0-7.5-.8-13.8-2.4-18.9-1.6-5.1-4.2-9-7.9-11.7-3.7-2.7-8.5-4.1-14.4-4.1-8.9,0-16.2,3-21.8,8.9-5.6,5.9-8.4,14.5-8.4,25.9v74.3h-25.4Z"/>
  </g>
  <g>
    <path d="M715.4,201.7c-12.3,0-22.6-1.8-30.8-5.5-8.2-3.7-14.5-8.7-18.8-15.2s-6.8-13.9-7.4-22.4l26.1-1.2c1.3,7,4.2,12.6,8.9,16.8,4.6,4.2,12,6.2,22,6.2s14.1-1.3,18.3-3.8c4.2-2.6,6.3-6.6,6.3-12.2s-.7-5.8-2.2-7.9c-1.4-2.1-4.2-3.9-8.4-5.4-4.2-1.5-10.3-3-18.4-4.4-12.5-2.4-22.2-5.2-29.1-8.5-6.9-3.3-11.9-7.3-14.7-12.2-2.9-4.9-4.3-10.8-4.3-17.9,0-11.7,4.4-21.2,13.2-28.5,8.8-7.3,21.5-11,38.1-11s21.2,2,28.8,5.9c7.5,3.9,13.2,9.1,17,15.5,3.8,6.4,6.1,13.3,6.9,20.6l-26.1,1.4c-.2-4-1.2-7.7-3.2-11-2-3.4-4.9-6-8.7-8-3.8-2-8.9-3-15.1-3s-14.5,1.6-18.4,4.8c-4,3.2-6,7.3-6,12.5s.8,6.9,2.4,9.3c1.6,2.4,4.4,4.4,8.4,5.9,4,1.5,9.3,2.8,16.1,4,12.9,2.1,23.1,4.8,30.4,8,7.3,3.3,12.5,7.3,15.5,12.2,3,4.9,4.4,10.7,4.4,17.6,0,12-4.7,21.2-14,27.8-9.3,6.6-21.7,9.8-37,9.8Z"/>
    <path d="M782,92.2v-20.8h78.6v20.8h-78.6ZM836.8,198.8c-12.1,0-21.1-2.8-26.8-8.4-5.8-5.6-8.6-14.3-8.6-26.1V41.4h25.4v121c0,5.9,1.3,10,3.8,12.2,2.6,2.2,6.5,3.4,11.7,3.4h18.2v20.8h-23.7Z"/>
    <path d="M919.8,201.7c-13.3,0-23.8-3-31.7-9.1-7.9-6.1-11.9-14.6-11.9-25.6s3.3-19.6,9.9-25.8c6.6-6.1,16.9-10.6,30.8-13.3l43.8-8.4c0-9.9-2.3-17.3-6.9-22.2-4.6-4.9-11.5-7.3-20.6-7.3s-14.5,1.8-19.2,5.4c-4.6,3.6-7.8,8.9-9.6,15.9l-26.1-1.7c2.4-12.8,8.3-22.8,17.9-30.2,9.5-7.3,21.8-11,37-11s30.4,4.6,39.4,13.8c9,9.2,13.5,22.1,13.5,38.7v49.6c0,3,.5,5.2,1.6,6.3,1,1.2,2.8,1.8,5.2,1.8h4.6v20.1c-.8.2-2.1.3-3.8.5-1.8.2-3.6.2-5.5.2-5.4,0-10.1-.9-14-2.6-3.9-1.8-6.8-4.7-8.7-8.7s-2.9-9.5-2.9-16.4l2.6,1.2c-1.3,5.6-4,10.5-8.3,14.9-4.2,4.3-9.6,7.7-16.1,10.2-6.5,2.5-13.5,3.7-21,3.7ZM923.8,181.6c7.7,0,14.2-1.5,19.6-4.4,5.4-3,9.7-7.1,12.7-12.3,3-5.3,4.6-11.3,4.6-18v-8.1l-37.4,7.2c-7.7,1.4-13.1,3.7-16.2,6.8-3.1,3.1-4.7,7.1-4.7,11.9s1.9,9.6,5.6,12.6c3.8,3,9,4.4,15.7,4.4Z"/>
    <path d="M1070.2,201.7c-12.1,0-22.8-2.7-31.9-8.1-9.1-5.4-16.1-13.2-21.1-23.2-5-10.1-7.4-21.8-7.4-35.2s2.5-25.1,7.4-35.1c4.9-10,12-17.7,21.1-23.2,9.1-5.5,19.7-8.3,31.9-8.3s19.6,1.8,27.7,5.4c8.1,3.6,14.6,8.8,19.6,15.7,5,6.9,8.3,15.3,9.7,25.2l-26.6,1.4c-1.3-8.3-4.6-14.7-10.1-19-5.4-4.4-12.2-6.6-20.4-6.6s-19,4-25,11.9c-6,7.9-9,18.8-9,32.7s3,24.8,9,32.7,14.3,11.9,25,11.9,14.9-2.3,20.4-6.8c5.4-4.6,8.8-11.5,10.1-20.7l26.6,1.4c-1.4,9.7-4.7,18.2-9.7,25.4-5,7.2-11.6,12.8-19.6,16.8-8.1,4-17.3,6-27.7,6Z"/>
    <path d="M1150.2,198.8V28.7h25.4v105.7l57.3-63h32.1l-49.8,53.7,51.8,73.8h-29.2l-39.5-58-22.5,24v34h-25.4Z"/>
  </g>
  <g>
    <line class="st0" x1="507.3" y1="140.5" x2="618.9" y2="140.5"/>
    <line class="st0" x1="517.1" y1="186.2" x2="609.1" y2="186.2"/>
    <line class="st0" x1="517.1" y1="94.9" x2="609.1" y2="94.9"/>
  </g>
</svg>